<svg width="1080" height="1080" viewBox="0 0 1080 1080" fill="none" xmlns="http://www.w3.org/2000/svg">
<g clip-path="url(#clip0_1_2)">
<path d="M0 512.943V0H1078V729L0 512.943Z" fill="#D9D9D9" stroke="white" stroke-width="5"/>
<path d="M632 250.219V348.656C632 357.714 624.231 365.062 614.656 365.062H464.344C454.769 365.062 447 357.714 447 348.656V250.219C447 241.161 454.769 233.812 464.344 233.812H496.141L500.585 222.567C503.114 216.176 509.582 211.938 516.809 211.938H562.155C569.382 211.938 575.85 216.176 578.379 222.567L582.859 233.812H614.656C624.231 233.812 632 241.161 632 250.219ZM582.859 299.438C582.859 276.811 563.42 258.422 539.5 258.422C515.58 258.422 496.141 276.811 496.141 299.438C496.141 322.064 515.58 340.453 539.5 340.453C563.42 340.453 582.859 322.064 582.859 299.438ZM571.297 299.438C571.297 316.015 557.024 329.516 539.5 329.516C521.976 329.516 507.703 316.015 507.703 299.438C507.703 282.86 521.976 269.359 539.5 269.359C557.024 269.359 571.297 282.86 571.297 299.438Z" fill="#554D4D"/>
</g>
<defs>
<clipPath id="clip0_1_2">
<rect width="1080" height="1080" fill="white"/>
</clipPath>
</defs>
</svg>
