<svg width="1080" height="1080" viewBox="0 0 1080 1080" fill="none" xmlns="http://www.w3.org/2000/svg">
<g clip-path="url(#clip0_1_2)">
<path d="M502.5 512.5C600.574 265.821 596.067 152.014 463 0.5H1077V1081.5H947.5L943.051 1079.78C783.649 1018.06 692.911 982.93 574 889.5C462.929 770.484 441.642 689.85 502.5 512.5Z" fill="#D9D9D9" stroke="black" stroke-width="5"/>
<path d="M909 450.719V540.156C909 548.386 901.903 555.062 893.156 555.062H755.844C747.097 555.062 740 548.386 740 540.156V450.719C740 442.489 747.097 435.812 755.844 435.812H784.891L788.951 425.596C791.261 419.788 797.17 415.938 803.771 415.938H845.196C851.797 415.938 857.706 419.788 860.016 425.596L864.109 435.812H893.156C901.903 435.812 909 442.489 909 450.719ZM864.109 495.438C864.109 474.879 846.351 458.172 824.5 458.172C802.649 458.172 784.891 474.879 784.891 495.438C784.891 515.996 802.649 532.703 824.5 532.703C846.351 532.703 864.109 515.996 864.109 495.438ZM853.547 495.438C853.547 510.499 840.509 522.766 824.5 522.766C808.491 522.766 795.453 510.499 795.453 495.438C795.453 480.376 808.491 468.109 824.5 468.109C840.509 468.109 853.547 480.376 853.547 495.438Z" fill="#514848"/>
</g>
<defs>
<clipPath id="clip0_1_2">
<rect width="1080" height="1080" fill="white"/>
</clipPath>
</defs>
</svg>
